<?xml version="1.0" standalone="no"?>
<!DOCTYPE svg PUBLIC "-//W3C//DTD SVG 20010904//EN"
 "http://www.w3.org/TR/2001/REC-SVG-20010904/DTD/svg10.dtd">
<svg version="1.0" xmlns="http://www.w3.org/2000/svg"
 width="207.000000pt" height="87.000000pt" viewBox="0 0 207.000000 87.000000"
 preserveAspectRatio="xMidYMid meet">
<metadata>
Created by potrace 1.10, written by Peter Selinger 2001-2011
</metadata>
<g transform="translate(0.000000,87.000000) scale(0.050000,-0.050000)"
fill="#ffffff" stroke="none">
<path d="M1252 1222 l-237 -238 242 3 243 3 0 235 c0 129 -2 235 -5 235 -3 0
-112 -107 -243 -238z"/>
<path d="M1760 1230 c0 -126 7 -230 15 -230 9 0 119 104 245 230 l229 230
-244 0 -245 0 0 -230z"/>
<path d="M1020 495 l0 -244 240 239 c132 132 240 242 240 245 0 3 -108 5 -240
5 l-240 0 0 -245z"/>
<path d="M1760 500 l0 -240 50 0 c47 0 50 7 50 100 l0 100 80 0 80 0 0 -100
c0 -93 3 -100 50 -100 l50 0 0 240 0 240 -50 0 c-47 0 -50 -7 -50 -100 l0
-100 -80 0 -80 0 0 100 c0 93 -3 100 -50 100 l-50 0 0 -240z"/>
<path d="M2163 538 c8 -232 37 -278 176 -278 129 0 170 66 178 292 l7 188 -51
0 c-51 0 -52 -2 -57 -183 -10 -320 -142 -320 -152 0 -5 181 -6 183 -57 183
l-51 0 7 -202z"/>
<path d="M2560 500 l0 -240 126 0 c187 0 295 128 185 220 -26 21 -26 27 0 53
92 93 -14 207 -194 207 l-117 0 0 -240z m203 140 c74 0 39 -89 -38 -96 -61 -6
-65 -3 -65 57 0 49 7 61 32 51 17 -7 49 -12 71 -12z m37 -210 c35 -43 -8 -90
-82 -90 -51 0 -58 7 -58 60 0 68 92 88 140 30z"/>
<path d="M3030 718 c-108 -62 -133 -316 -41 -409 88 -88 291 -37 291 72 0 47
-75 54 -92 10 -45 -117 -148 -39 -148 111 0 141 48 190 120 118 46 -46 120
-54 120 -12 0 88 -163 160 -250 110z"/>
<path d="M3429 721 c-119 -48 -147 -323 -43 -413 147 -126 294 -31 294 189 0
193 -102 284 -251 224z m112 -82 c46 -24 57 -233 15 -275 -70 -70 -136 -1
-136 143 0 122 46 172 121 132z"/>
<path d="M500 486 l-230 -226 245 0 245 0 0 230 c0 127 -7 228 -15 226 -8 -2
-118 -105 -245 -230z"/>
</g>
</svg>
